<svg xmlns="http://www.w3.org/2000/svg" viewBox="0 0 512 512"><path d="M0 0h512v512H0z" fill="#1570dc"/><path d="m113 163 12.7-12.7 12.7 12.7-12.7 12.7L113 163zm260.5 0 12.7-12.7L399 163l-12.7 12.7-12.8-12.7zM226 133h60v60h-60v-60zm160 30H286m-60 0H126m130 65-50 94 15 32v24h70v-24l15-32-50-94zm0 0v81.1m0 0c-4 0-7.2 3.2-7.2 6.9s3.2 7.1 7.2 7.1 7.2-3.3 7.2-7.1-3.2-6.9-7.2-6.9zM286 168c104.4 12.9 100 118 100 118m-260 0s-4.4-105.1 100-118" fill="none" stroke="#fff" stroke-width="14" stroke-linecap="round" stroke-linejoin="round"/></svg>
